<?xml version="1.0" encoding="UTF-8"?>
<svg xmlns="http://www.w3.org/2000/svg" version="1.1" viewBox="0 0 595.28 841.89">
  <defs>
    <style>
      .cls-1 {
        fill: #bf3415;
      }

      .cls-2 {
        fill: #fff;
      }

      .cls-3 {
        fill: #2b2b29;
        stroke: #2b2b29;
        stroke-miterlimit: 10;
      }
    </style>
  </defs>
  <!-- Generator: Adobe Illustrator 28.7.5, SVG Export Plug-In . SVG Version: 1.2.0 Build 176)  -->
  <g>
    <g id="Layer_1">
      <rect class="cls-3" x="-100" y="-6" width="867" height="847.89"/>
      <g>
        <rect class="cls-1" x="194.36" y="187.3" width="167.91" height="241.31" transform="translate(299.27 -106.6) rotate(45)"/>
        <rect class="cls-1" x="31.55" y="457.48" width="347.75" height="142.72" transform="translate(323.09 -26.16) rotate(33.2)"/>
        <rect class="cls-1" x="172.98" y="271.94" width="219.06" height="376.32" transform="translate(-252.25 385.74) rotate(-50.53)"/>
        <rect class="cls-1" x="254.06" y="457.48" width="319.37" height="142.72" transform="translate(1074.54 648) rotate(138.26)"/>
        <rect class="cls-1" x="303.52" y="253.36" width="167.91" height="241.31" transform="translate(-150.65 352.89) rotate(-41.74)"/>
      </g>
      <g id="d4_die">
        <g id="d4_geometry">
          <path class="cls-2" d="M324.64,152.53c-10.6-12.65-28-12.68-38.63-.08L12.46,476.41c-10.64,12.61-7.76,29.84,6.42,38.29l298.52,178c14.17,8.45,36,6.56,48.51-4.21l214.21-184.38c12.53-10.9,14.06-29.81,3.45-42.58L324.64,152.53ZM48.64,508.29c-14.17-8.45-17.06-25.68-6.41-38.29l235.07-278.35c10.65-12.61,20.24-9.45,21.31,7l29.23,447.35c1.08,16.47-9.64,23-23.81,14.58L48.64,508.29ZM318.95,203.12c-1.08-16.47,6.71-19.59,17.31-6.94l218.79,261.1c10.59,12.78,9.05,31.67-3.47,42.56l-179.15,154.21c-12.51,10.77-23.62,6.1-24.7-10.36l-28.78-440.57Z"/>
          <path class="cls-2" d="M324.64,152.53c-10.6-12.65-28-12.68-38.63-.08L12.46,476.41c-10.64,12.61-7.76,29.84,6.42,38.29l298.52,178c14.17,8.45,36,6.56,48.51-4.21l214.21-184.38c12.53-10.9,14.06-29.81,3.45-42.58L324.64,152.53ZM48.64,508.29c-14.17-8.45-17.06-25.68-6.41-38.29l235.07-278.35c10.65-12.61,20.24-9.45,21.31,7l29.23,447.35c1.08,16.47-9.64,23-23.81,14.58L48.64,508.29ZM318.95,203.12c-1.08-16.47,6.71-19.59,17.31-6.94l218.79,261.1c10.59,12.78,9.05,31.67-3.47,42.56l-179.15,154.21c-12.51,10.77-23.62,6.1-24.7-10.36l-28.78-440.57Z"/>
        </g>
        <path id="d4_numbers" class="cls-2" d="M400.23,342.2l5.89-3.67-10.4-19-5.85,3.28-26.53-49.5-14.1,5.89,4.63,71.7,7.25,15.63,25.95-16.14,12.05,23.63,13.2-9.2-12.09-22.62ZM366.02,336.2l-2.19-24.37c-.18-2.41-.68-5.63-1.3-9.39l14.19,27.76-10.7,6ZM383.82,503.53l7.78-16.18,46,27.38-3.41,8-27.53,12.63c-14.62,6.72-20.67,10.92-24.34,18.87-2.92,6.34-1.58,11,3.36,12.8,5.09,1.86,9.33-1.13,13.73-9.3l.61-1.12,15.84,6.5-.56,1.08c-8.68,16.73-21.77,23.82-38.51,18.56-17.48-5.5-23.08-19-15.05-35.64,4.93-10.21,12.63-16.11,33.22-24.88l13.16-5.63-24.3-13.07ZM454.96,477.03c-15.25-8.53-18.33-25.07-9.27-44.41,9.23-19.7,24.62-24.16,40.69-14.65l1.13.67-9.24,19.24-1.19-.51c-5.81-2.46-12.41-2-15.44,4.41-3.18,6.69-1.18,13.32,4.1,16.54,6.46,3.94,11.82,1.48,15.74-5.77l1.46-2.73,11.93,7.75-1.13,2.85c-2.74,7-.76,12.46,3.86,15.3,4.34,2.66,8.29,1.69,10.69-3.14,2.55-5.15-.44-9.95-4.56-13.18l-.92-.74,8.87-18,.91.78c10.23,8.87,15.39,23.63,6.91,40.54-7.92,15.78-19.47,18.54-28.86,13.25-8-4.54-11.59-11.73-9.47-22.09-6.78,8.68-16.43,9.39-26.21,3.9h0ZM272.12,273.18l-22.42-8.08-54.28,53.68-4.47,14.39,33.65,14.36-7.35,22.39,19.15,8.61,7.72-22.65,9.27,4,7.25-21.1-9.41-3.86,20.89-61.74ZM231.42,326.79l-14.87-6.1,18-17.44c2-1.83,4.32-4.53,7.13-7.79l-10.26,31.33ZM210.57,539.79l-9-15.77,49.4-46.69,5.37,9.11-7.03,43.09c-3.27,20-3.36,28.52,1.09,36.24,3.51,6.11,8.27,7.17,13,3.16,5.1-4.29,5.39-10.39,1.1-19.53l-.59-1.26,18-15.5.6,1.28c9.27,19.64,5.47,38.07-11.48,51.94-15.63,12.8-29.28,10.78-37.79-4.21-5.31-9.35-6-19.43-2.18-45.07l2.64-18-23.13,21.21ZM139.12,440.86l2.16,24.53-48.1,10,12.72,25.26-14.78,2.68-11-20.16c-2.88-5.35-4.65-11.22-5.21-17.27l-1-10,65.21-15.04Z"/>
      </g>
    </g>
  </g>
</svg>